<?xml version="1.0" encoding="UTF-8" standalone="no"?>
<!DOCTYPE svg PUBLIC "-//W3C//DTD SVG 1.1//EN" "http://www.w3.org/Graphics/SVG/1.1/DTD/svg11.dtd">
<svg width="100%" height="100%" viewBox="0 0 650 220" version="1.1" xmlns="http://www.w3.org/2000/svg" xmlns:xlink="http://www.w3.org/1999/xlink" xml:space="preserve" xmlns:serif="http://www.serif.com/" style="fill-rule:evenodd;clip-rule:evenodd;stroke-linecap:round;stroke-linejoin:round;stroke-miterlimit:1.5;">
    <g transform="matrix(1,0,0,1,-635,-430)">
        <g transform="matrix(1,0,0,1,507.593,280.042)">
            <g transform="matrix(1,0,0,1,-508.593,-280.042)">
                <path d="M670,575L670,540C670,504.101 699.101,475 735,475L770,475" style="fill:none;stroke:white;stroke-width:34.72px;"/>
            </g>
            <g transform="matrix(1,0,0,1,-507.593,-280.042)">
                <path d="M1250,605L1125,605L1187.5,475L1250,605Z" style="fill:white;stroke:white;stroke-width:34.72px;"/>
            </g>
            <g transform="matrix(1,0,0,1,-488.593,-280.042)">
                <path d="M975,474.998C975,474.998 987.133,474.998 1000,474.999C1016.57,474.999 1030,488.431 1030,504.999C1030,543.392 1030,605 1030,605L1030,505C1030,497.044 1033.16,489.413 1038.79,483.787C1044.41,478.161 1052.04,475 1060,475L1085,475L975,474.998Z" style="fill:none;stroke:white;stroke-width:34.72px;"/>
            </g>
            <g id="reset.svg" transform="matrix(1.34711e-16,2.2,-2.2,1.34711e-16,371.424,259.958)">
                <g transform="matrix(1,0,0,1,-50,-50)">
                    <clipPath id="_clip1">
                        <rect x="0" y="0" width="100" height="100"/>
                    </clipPath>
                    <g clip-path="url(#_clip1)">
                        <g transform="matrix(0.1,0,0,0.1,0,0)">
                            <rect x="0" y="0" width="1000" height="1000" style="fill:none;"/>
                            <g>
                                <g transform="matrix(1.39535,0,0,1.09091,-162.791,47.2727)">
                                    <path d="M690,415C690,566.777 593.662,690 475,690" style="fill:none;stroke:white;stroke-width:119.77px;"/>
                                </g>
                                <g transform="matrix(1,0,0,1.5,-1.42109e-14,-400)">
                                    <path d="M456.8,721.6C464.982,717.509 475.928,716.851 485.075,719.9C494.222,722.949 500,729.182 500,736L500,864C500,870.818 494.222,877.051 485.075,880.1C475.928,883.149 464.982,882.491 456.8,878.4C418.072,859.036 362.337,831.169 328.8,814.4C322.001,811.001 318,805.666 318,800C318,794.334 322.001,788.999 328.8,785.6C362.337,768.831 418.072,740.964 456.8,721.6Z" style="fill:white;"/>
                                </g>
                            </g>
                        </g>
                        <g transform="matrix(-0.1,-1.22465e-17,1.22465e-17,-0.1,100,100)">
                            <rect x="0" y="0" width="1000" height="1000" style="fill:none;"/>
                            <g>
                                <g transform="matrix(1.39535,0,0,1.09091,-162.791,47.2727)">
                                    <path d="M690,415C690,566.777 593.662,690 475,690" style="fill:none;stroke:white;stroke-width:119.77px;"/>
                                </g>
                                <g transform="matrix(1,0,0,1.5,-1.42109e-14,-400)">
                                    <path d="M456.8,721.6C464.982,717.509 475.928,716.851 485.075,719.9C494.222,722.949 500,729.182 500,736L500,864C500,870.818 494.222,877.051 485.075,880.1C475.928,883.149 464.982,882.491 456.8,878.4C418.072,859.036 362.337,831.169 328.8,814.4C322.001,811.001 318,805.666 318,800C318,794.334 322.001,788.999 328.8,785.6C362.337,768.831 418.072,740.964 456.8,721.6Z" style="fill:white;"/>
                                </g>
                            </g>
                        </g>
                    </g>
                </g>
            </g>
        </g>
    </g>
</svg>
