<?xml version="1.0" encoding="UTF-8" standalone="no"?>
<!DOCTYPE svg PUBLIC "-//W3C//DTD SVG 1.1//EN" "http://www.w3.org/Graphics/SVG/1.1/DTD/svg11.dtd">
<svg width="100%" height="100%" viewBox="0 0 650 200" version="1.1" xmlns="http://www.w3.org/2000/svg" xmlns:xlink="http://www.w3.org/1999/xlink" xml:space="preserve" xmlns:serif="http://www.serif.com/" style="fill-rule:evenodd;clip-rule:evenodd;stroke-linejoin:round;stroke-miterlimit:2;">
    <g transform="matrix(1,0,0,1,-635,-440)">
        <g transform="matrix(1,0,0,1,507.593,280.042)">
            <g transform="matrix(1,0,0,1,-5.52673,-0.6634)">
                <path d="M249.151,279.682C247.988,277.362 248.793,274.537 251.005,273.18C265.142,264.247 272.886,245.445 273.459,229.791C274.084,206.041 255.542,185.625 234.709,184.583C208.25,183.125 177.209,182.083 167.417,183.125C157.834,184.166 150.959,189.791 150.959,202.083C150.959,212.916 149.709,317.291 151.167,326.25C152.625,335.208 160.334,340.208 167.834,340.208C175.542,340.208 183.25,334.583 184.292,325.416C184.848,320.273 184.755,301.774 184.631,290.032C184.641,284.532 189.093,280.073 194.593,280.055C197.967,280.044 202.031,280.014 206.549,279.935C210.506,279.864 214.132,282.134 215.798,285.724C223.684,302.715 232.937,322.817 235.542,328.958C239.917,339.166 250.959,340.625 257.209,337.708C263.459,334.583 269.5,326.666 266.167,316.25C264.266,310.548 256.643,294.614 249.151,279.682ZM186.167,243.958C185.75,239.166 186.584,222.916 186.584,219.375C186.584,215 188.042,212.291 192.417,212.291C197.897,212.291 220.75,212.5 228.667,213.125C236.584,213.958 242,223.541 241.584,230.625C240.75,241.666 234.5,247.916 225.125,248.541C215.959,249.166 195.75,248.958 192.417,248.958C188.875,248.958 186.375,248.958 186.167,243.958Z" style="fill:white;fill-rule:nonzero;"/>
            </g>
            <g transform="matrix(1,0,0,1,-5.52673,-0.6634)">
                <path d="M441.375,240C432,207.291 401.167,184.375 366.167,184.375L364.5,184.375C328.459,185 300.959,213.333 295.334,240.416C288.042,275.833 303.875,309.375 323.459,324.375C334.5,332.708 352,337.708 370.334,337.708C385.334,337.708 399.084,334.375 410.334,328.333C436.792,313.958 450.959,273.541 441.375,240ZM405.125,277.5C400.75,292.916 382.625,300.833 368.25,300.208C350.75,299.375 335.542,287.916 332.209,273.125C328.042,255.208 332.209,239.791 343.25,230.625C349.5,225.208 358.667,222.291 368.459,222.291C379.709,222.291 389.917,226.25 396.375,233.125C410.125,247.5 408.875,265.208 405.125,277.5Z" style="fill:white;fill-rule:nonzero;"/>
            </g>
            <g transform="matrix(1,0,0,1,-5.52673,-0.6634)">
                <path d="M582.625,179.791C572.834,178.541 490.334,178.541 478.667,178.958C468.667,179.375 457.209,184.791 458.667,196.666C460.334,208.541 467.417,210.833 477.834,211.25C480.474,211.415 490.301,211.318 502.968,211.064C505.717,211.02 508.362,212.108 510.283,214.075C512.203,216.041 513.23,218.711 513.121,221.458C512.527,250.155 512.889,309.657 513.25,319.791C513.667,330.416 518.25,341.875 530.125,341.041C543.042,340.416 545.334,333.125 545.75,322.083C546.113,314.293 545.845,248.05 546.043,220.086C546.155,214.681 550.542,210.344 555.948,210.294C568.322,210.141 578.004,210.042 581.167,210.208C591.375,210.625 597,201.875 597,195.625C597,189.166 592.625,180.833 582.625,179.791Z" style="fill:white;fill-rule:nonzero;"/>
            </g>
            <g transform="matrix(1,0,0,1,-5.52673,-0.6634)">
                <path d="M763.667,318.541C759.5,309.791 714.917,199.375 709.5,190.416C704.084,181.25 686.792,179.166 676.792,183.333C667,187.5 661.167,206.458 655.75,219.791C650.334,232.916 614.5,304.166 609.5,317.5C604.5,330.833 610.334,339.791 619.917,341.875C629.5,343.958 633.667,341.25 640.542,331.666C642.144,329.424 648.057,318.065 652.599,308.958C653.309,307.535 654.583,304.889 655.789,302.353C657.44,298.878 660.938,296.658 664.786,296.645C676.046,296.605 699.467,296.523 711.048,296.482C715.13,296.468 718.812,298.936 720.348,302.718C724.876,313.952 729.152,324.206 731.792,328.958C738.042,340.208 750.125,342.083 757,338.958C764.084,335.625 767.834,327.291 763.667,318.541ZM688.027,230.972C688.276,230.422 688.83,230.074 689.434,230.09C690.038,230.106 690.573,230.483 690.792,231.046C693.198,237.232 698.478,250.673 702.424,259.706C702.699,260.322 702.645,261.036 702.28,261.603C701.914,262.171 701.287,262.516 700.612,262.521C694.882,262.561 682.578,262.646 676.794,262.686C676.111,262.691 675.474,262.348 675.102,261.776C674.731,261.204 674.676,260.482 674.958,259.861C680.465,247.711 685.596,236.354 688.027,230.972Z" style="fill:white;fill-rule:nonzero;"/>
            </g>
        </g>
    </g>
</svg>
